<?xml version="1.0" encoding="UTF-8" standalone="no"?>
<svg
   xmlns:dc="http://purl.org/dc/elements/1.1/"
   xmlns:cc="http://creativecommons.org/ns#"
   xmlns:rdf="http://www.w3.org/1999/02/22-rdf-syntax-ns#"
   xmlns:svg="http://www.w3.org/2000/svg"
   xmlns="http://www.w3.org/2000/svg"
   xmlns:xlink="http://www.w3.org/1999/xlink"
   xmlns:sodipodi="http://sodipodi.sourceforge.net/DTD/sodipodi-0.dtd"
   xmlns:inkscape="http://www.inkscape.org/namespaces/inkscape"
   width="124.04"
   height="200"
   viewBox="0 0 32.818918 52.916668"
   version="1.1"
   id="svg677"
   sodipodi:docname="storm.svg"
   inkscape:version="1.0.1 (0767f8302a, 2020-10-17)">
  <defs
     id="defs671">
    <clipPath
       id="SVGID_4_">
      <use
         xlink:href="#SVGID_3_"
         style="overflow:visible"
         id="use198"
         x="0"
         y="0"
         width="100%"
         height="100%" />
    </clipPath>
    <rect
       id="SVGID_3_"
       x="263.5"
       y="80.900002"
       width="314.89999"
       height="433.5" />
  </defs>
  <sodipodi:namedview
     id="base"
     pagecolor="#ffffff"
     bordercolor="#666666"
     borderopacity="1.0"
     inkscape:pageopacity="0.0"
     inkscape:pageshadow="2"
     inkscape:zoom="0.70932169"
     inkscape:cx="312.92421"
     inkscape:cy="7.7458527"
     inkscape:document-units="mm"
     inkscape:current-layer="g203"
     inkscape:document-rotation="0"
     showgrid="true"
     units="px"
     inkscape:window-width="1864"
     inkscape:window-height="1016"
     inkscape:window-x="56"
     inkscape:window-y="27"
     inkscape:window-maximized="1"
     inkscape:snap-page="true"
     showguides="false">
    <inkscape:grid
       type="xygrid"
       id="grid1542" />
  </sodipodi:namedview>
  <metadata
     id="metadata674">
    <rdf:RDF>
      <cc:Work
         rdf:about="">
        <dc:format>image/svg+xml</dc:format>
        <dc:type
           rdf:resource="http://purl.org/dc/dcmitype/StillImage" />
        <dc:title></dc:title>
      </cc:Work>
    </rdf:RDF>
  </metadata>
  <g
     inkscape:label="Taso 1"
     inkscape:groupmode="layer"
     id="layer1">
    <g
       id="g203"
       transform="matrix(0.26458333,0,0,0.26458333,-69.902916,-21.404792)">
      <defs
         id="defs196">
        <rect
           id="rect694"
           x="263.5"
           y="80.900002"
           width="314.89999"
           height="433.5" />
      </defs>
      <clipPath
         id="clipPath667">
        <use
           xlink:href="#SVGID_3_"
           style="overflow:visible"
           id="use665"
           x="0"
           y="0"
           width="100%"
           height="100%" />
      </clipPath>
      <path
         class="st1"
         d="M 578.1,130.7 V 91.4 c -1,0.2 -2,0.3 -3,0.3 -7,0 -13,-4.4 -15.5,-10.8 -2.6,6.3 -8.6,10.8 -15.6,10.8 -7,0 -13,-4.4 -15.5,-10.8 -2.6,6.3 -8.6,10.8 -15.5,10.8 -7,0 -13,-4.4 -15.5,-10.8 -2.6,6.3 -8.6,10.8 -15.5,10.8 -7,0 -13,-4.4 -15.5,-10.8 -2.6,6.3 -8.6,10.8 -15.5,10.8 -7,0 -13,-4.4 -15.5,-10.8 -2.6,6.3 -8.6,10.8 -15.5,10.8 -7,0 -13,-4.4 -15.5,-10.8 -2.6,6.3 -8.6,10.8 -15.5,10.8 -7,0 -13,-4.4 -15.5,-10.8 -2.6,6.3 -8.6,10.8 -15.5,10.8 -7,0 -13,-4.4 -15.5,-10.8 -2.6,6.3 -8.6,10.8 -15.5,10.8 -7,0 -13,-4.4 -15.5,-10.8 -2.6,6.3 -8.6,10.8 -15.5,10.8 -7,0 -13,-4.4 -15.5,-10.8 -2.6,6.3 -8.6,10.8 -15.5,10.8 -0.3,0 -0.5,0 -0.8,0 v 39.1 h 313.9 z"
         clip-path="url(#SVGID_4_)"
         id="path201"
         transform="matrix(4.0012744,0,0,4.0080164,-858.15747,-243.34852)"
         style="fill:#dedfe1;fill-opacity:1" />
    </g>
  </g>
</svg>
