<?xml version="1.0" encoding="UTF-8" standalone="no"?>
<svg
   xmlns:dc="http://purl.org/dc/elements/1.1/"
   xmlns:cc="http://creativecommons.org/ns#"
   xmlns:rdf="http://www.w3.org/1999/02/22-rdf-syntax-ns#"
   xmlns:svg="http://www.w3.org/2000/svg"
   xmlns="http://www.w3.org/2000/svg"
   xmlns:xlink="http://www.w3.org/1999/xlink"
   xmlns:sodipodi="http://sodipodi.sourceforge.net/DTD/sodipodi-0.dtd"
   xmlns:inkscape="http://www.inkscape.org/namespaces/inkscape"
   width="1920"
   height="1280"
   viewBox="0 0 507.99999 338.66668"
   version="1.1"
   id="svg248"
   inkscape:version="1.0.1 (0767f8302a, 2020-10-17)"
   sodipodi:docname="wave.svg">
  <defs
     id="defs242">
    <clipPath
       id="SVGID_6_">
      <use
         xlink:href="#SVGID_5_"
         style="overflow:visible"
         id="use210"
         x="0"
         y="0"
         width="100%"
         height="100%" />
    </clipPath>
    <rect
       id="SVGID_5_"
       x="263.5"
       y="80.900002"
       width="314.89999"
       height="433.5" />
    <clipPath
       id="SVGID_2_">
      <use
         xlink:href="#SVGID_1_"
         style="overflow:visible"
         id="use184"
         x="0"
         y="0"
         width="100%"
         height="100%" />
    </clipPath>
    <clipPath
       id="SVGID_2_-3">
      <use
         xlink:href="#SVGID_1_"
         style="overflow:visible"
         id="use184-6"
         x="0"
         y="0"
         width="100%"
         height="100%" />
    </clipPath>
    <clipPath
       id="SVGID_2_-5">
      <use
         xlink:href="#SVGID_1_"
         style="overflow:visible"
         id="use184-3"
         x="0"
         y="0"
         width="100%"
         height="100%" />
    </clipPath>
    <clipPath
       id="SVGID_2_-56">
      <use
         xlink:href="#SVGID_1_"
         style="overflow:visible"
         id="use184-2"
         x="0"
         y="0"
         width="100%"
         height="100%" />
    </clipPath>
    <clipPath
       id="SVGID_6_-9">
      <use
         xlink:href="#SVGID_5_-0"
         style="overflow:visible"
         id="use210-1"
         x="0"
         y="0"
         width="100%"
         height="100%" />
    </clipPath>
    <clipPath
       id="SVGID_4_">
      <use
         xlink:href="#SVGID_3_"
         style="overflow:visible"
         id="use198"
         x="0"
         y="0"
         width="100%"
         height="100%" />
    </clipPath>
    <clipPath
       id="SVGID_2_-2">
      <use
         xlink:href="#SVGID_1_"
         style="overflow:visible"
         id="use184-7"
         x="0"
         y="0"
         width="100%"
         height="100%" />
    </clipPath>
    <clipPath
       id="clipPath377">
      <use
         xlink:href="#SVGID_1_"
         style="overflow:visible"
         id="use375"
         x="0"
         y="0"
         width="100%"
         height="100%" />
    </clipPath>
    <rect
       id="SVGID_1_"
       x="263.5"
       y="80.900002"
       width="314.89999"
       height="433.5" />
    <rect
       id="SVGID_3_"
       x="263.5"
       y="80.900002"
       width="314.89999"
       height="433.5" />
    <rect
       id="SVGID_5_-0"
       x="263.5"
       y="80.900002"
       width="314.89999"
       height="433.5" />
    <defs
       id="defs182">
      <rect
         id="rect450"
         x="263.5"
         y="80.900002"
         width="314.89999"
         height="433.5" />
    </defs>
    <clipPath
       id="clipPath383">
      <use
         xlink:href="#SVGID_1_"
         style="overflow:visible"
         id="use381"
         x="0"
         y="0"
         width="100%"
         height="100%" />
    </clipPath>
    <defs
       id="defs196">
      <rect
         id="rect459"
         x="263.5"
         y="80.900002"
         width="314.89999"
         height="433.5" />
    </defs>
    <clipPath
       id="clipPath393">
      <use
         xlink:href="#SVGID_3_"
         style="overflow:visible"
         id="use391"
         x="0"
         y="0"
         width="100%"
         height="100%" />
    </clipPath>
    <defs
       id="defs208">
      <rect
         id="rect467"
         x="263.5"
         y="80.900002"
         width="314.89999"
         height="433.5" />
    </defs>
    <clipPath
       id="clipPath402">
      <use
         xlink:href="#SVGID_5_-0"
         style="overflow:visible"
         id="use400"
         x="0"
         y="0"
         width="100%"
         height="100%" />
    </clipPath>
    <clipPath
       id="SVGID_6_-93">
      <use
         xlink:href="#SVGID_5_-2"
         style="overflow:visible"
         id="use210-6"
         x="0"
         y="0"
         width="100%"
         height="100%" />
    </clipPath>
    <clipPath
       id="SVGID_4_-0">
      <use
         xlink:href="#SVGID_3_-2"
         style="overflow:visible"
         id="use198-6"
         x="0"
         y="0"
         width="100%"
         height="100%" />
    </clipPath>
    <clipPath
       id="SVGID_2_-26">
      <use
         xlink:href="#SVGID_1_-7"
         style="overflow:visible"
         id="use184-1"
         x="0"
         y="0"
         width="100%"
         height="100%" />
    </clipPath>
    <clipPath
       id="clipPath508">
      <use
         xlink:href="#SVGID_1_-7"
         style="overflow:visible"
         id="use506"
         x="0"
         y="0"
         width="100%"
         height="100%" />
    </clipPath>
    <rect
       id="SVGID_1_-7"
       x="263.5"
       y="80.900002"
       width="314.89999"
       height="433.5" />
    <rect
       id="SVGID_3_-2"
       x="263.5"
       y="80.900002"
       width="314.89999"
       height="433.5" />
    <rect
       id="SVGID_5_-2"
       x="263.5"
       y="80.900002"
       width="314.89999"
       height="433.5" />
    <defs
       id="defs182-8">
      <rect
         id="rect581"
         x="263.5"
         y="80.900002"
         width="314.89999"
         height="433.5" />
    </defs>
    <clipPath
       id="clipPath514">
      <use
         xlink:href="#SVGID_1_-7"
         style="overflow:visible"
         id="use512"
         x="0"
         y="0"
         width="100%"
         height="100%" />
    </clipPath>
  </defs>
  <sodipodi:namedview
     id="base"
     pagecolor="#ffffff"
     bordercolor="#666666"
     borderopacity="1.0"
     inkscape:pageopacity="0.0"
     inkscape:pageshadow="2"
     inkscape:zoom="0.35153791"
     inkscape:cx="602.63911"
     inkscape:cy="542.48846"
     inkscape:document-units="px"
     inkscape:current-layer="layer1"
     inkscape:document-rotation="0"
     showgrid="true"
     units="px"
     inkscape:snap-page="true"
     inkscape:snap-grids="true"
     inkscape:snap-to-guides="false"
     inkscape:window-width="1864"
     inkscape:window-height="1016"
     inkscape:window-x="56"
     inkscape:window-y="27"
     inkscape:window-maximized="1"
     inkscape:pagecheckerboard="true">
    <inkscape:grid
       type="xygrid"
       id="grid490"
       spacingx="42.333334"
       spacingy="84.666668" />
  </sodipodi:namedview>
  <metadata
     id="metadata245">
    <rdf:RDF>
      <cc:Work
         rdf:about="">
        <dc:format>image/svg+xml</dc:format>
        <dc:type
           rdf:resource="http://purl.org/dc/dcmitype/StillImage" />
        <dc:title></dc:title>
      </cc:Work>
    </rdf:RDF>
  </metadata>
  <g
     inkscape:label="Taso 1"
     inkscape:groupmode="layer"
     id="layer1">
    <path
       class="st0"
       d="m 578.4,398.7 c 0,0 0,0 0,0 -7.9,0 -7.9,-4.8 -15.8,-4.8 -7.9,0 -7.9,4.8 -15.7,4.8 -7.9,0 -7.9,-4.8 -15.7,-4.8 -7.9,0 -7.9,4.8 -15.7,4.8 -7.9,0 -7.9,-4.8 -15.7,-4.8 -7.9,0 -7.9,4.8 -15.7,4.8 -7.9,0 -7.9,-4.8 -15.7,-4.8 -7.8,0 -7.9,4.8 -15.7,4.8 -7.9,0 -7.9,-4.8 -15.7,-4.8 -7.9,0 -7.9,4.8 -15.7,4.8 -7.9,0 -7.9,-4.8 -15.7,-4.8 -7.8,0 -7.9,4.8 -15.7,4.8 -7.9,0 -7.9,-4.8 -15.7,-4.8 -7.9,0 -7.9,4.8 -15.7,4.8 -7.9,0 -7.9,-4.8 -15.7,-4.8 -7.9,0 -7.9,4.8 -15.7,4.8 -7.9,0 -7.9,-4.8 -15.7,-4.8 -7.9,0 -7.9,4.8 -15.7,4.8 -7.9,0 -7.9,-4.8 -15.7,-4.8 -7.8,0 -7.9,4.8 -15.7,4.8 -0.1,0 -0.2,0 -0.3,0 V 442 h 314.9 v -43.3 z"
       clip-path="url(#SVGID_2_-26)"
       id="path187"
       transform="matrix(0.26458334,0,0,0.26458334,-449.28898,44.793963)" />
    <path
       class="st0"
       d="m 578.1,255.2 c -0.4,0.1 -0.9,0.2 -1.3,0.2 -4,0 -5.5,-3.7 -5.5,-3.7 0,0 -4.3,-13 -4.4,-13.1 -0.9,-2.4 -3.1,-4 -5.6,-4 -4.3,0 -5.6,4 -5.6,4 0,0 -4.3,12.8 -4.3,13 -0.9,2.3 -3.1,3.9 -5.6,3.9 -4.3,0 -5.5,-3.7 -5.5,-3.7 0,0 -4.3,-13 -4.4,-13.1 -0.9,-2.4 -3.1,-4 -5.6,-4 -4.3,0 -5.6,4 -5.6,4 0,0 -4.3,12.8 -4.3,13 -0.9,2.3 -3.1,3.9 -5.6,3.9 -4,0 -5.5,-3.7 -5.5,-3.7 0,0 -4.3,-13 -4.3,-13.1 -0.9,-2.4 -3.1,-4 -5.6,-4 -4.3,0 -5.6,4 -5.6,4 0,0 -4.3,12.8 -4.3,13 -0.9,2.3 -3.1,3.9 -5.6,3.9 -4.3,0 -5.5,-3.7 -5.5,-3.7 0,0 -4.3,-13 -4.4,-13.1 -0.9,-2.4 -3.1,-4 -5.6,-4 -4.3,0 -5.6,4 -5.6,4 0,0 -4.3,12.8 -4.3,13 -0.9,2.3 -3.1,3.9 -5.6,3.9 -4.3,0 -5.5,-3.5 -5.5,-3.5 0,0 -4.4,-13.2 -4.5,-13.3 -0.9,-2.4 -3.1,-4 -5.6,-4 -4.3,0 -5.6,4 -5.6,4 0,0 -4.3,12.8 -4.3,13 -0.9,2.3 -3.1,3.9 -5.6,3.9 -4.3,0 -5.5,-3.7 -5.5,-3.7 0,0 -4.3,-13 -4.4,-13.1 -0.9,-2.4 -3.1,-4 -5.6,-4 -4.3,0 -5.6,4 -5.6,4 0,0 -4.3,12.8 -4.3,13 -0.9,2.3 -3.1,3.9 -5.6,3.9 -4,0 -5.5,-3.7 -5.5,-3.7 0,0 -4.3,-13 -4.4,-13.1 -0.9,-2.4 -3.1,-4 -5.6,-4 -4.3,0 -5.6,4 -5.6,4 0,0 -4.3,12.8 -4.3,13 -0.9,2.3 -3.1,3.9 -5.6,3.9 -4.3,0 -5.5,-3.7 -5.5,-3.7 0,0 -4.3,-13 -4.4,-13.1 -0.9,-2.4 -3.1,-4 -5.6,-4 -4.3,0 -5.6,4 -5.6,4 0,0 -4.3,12.8 -4.3,13 -0.9,2.3 -3.1,3.9 -5.6,3.9 -4,0 -5.5,-3.7 -5.5,-3.7 0,0 -4.3,-13 -4.3,-13.1 -0.9,-2.4 -3.1,-4 -5.6,-4 -4.3,0 -5.6,4 -5.6,4 0,0 -4.3,12.8 -4.3,13 -0.9,2.3 -3.1,3.9 -5.6,3.9 -4.3,0 -5.5,-3.7 -5.5,-3.7 0,0 -4.3,-13 -4.4,-13.1 -0.9,-2.4 -3.1,-4 -5.6,-4 -4.3,0 -5.6,4 -5.6,4 0,0 -4.3,12.8 -4.3,13 -0.9,2.3 -3.1,3.9 -5.6,3.9 -1.1,0 -1.9,-0.2 -2.7,-0.5 v 34 h 314.6 v -34.7 z"
       clip-path="url(#SVGID_2_-26)"
       id="path189"
       transform="matrix(0.26458334,0,0,0.26458334,-449.28898,44.793963)" />
    <rect
       x="-379.57126"
       y="169.33333"
       width="83.237923"
       height="11.562292"
       id="rect193"
       style="stroke-width:0.264583" />
    <g
       id="g203"
       transform="matrix(0.26458334,0,0,0.26458334,-449.28898,44.793963)">
      <defs
         id="defs196-9">
        <rect
           id="rect590"
           x="263.5"
           y="80.900002"
           width="314.89999"
           height="433.5" />
      </defs>
      <clipPath
         id="clipPath524">
        <use
           xlink:href="#SVGID_3_-2"
           style="overflow:visible"
           id="use522"
           x="0"
           y="0"
           width="100%"
           height="100%" />
      </clipPath>
      <path
         class="st1"
         d="M 578.1,130.7 V 91.4 c -1,0.2 -2,0.3 -3,0.3 -7,0 -13,-4.4 -15.5,-10.8 -2.6,6.3 -8.6,10.8 -15.6,10.8 -7,0 -13,-4.4 -15.5,-10.8 -2.6,6.3 -8.6,10.8 -15.5,10.8 -7,0 -13,-4.4 -15.5,-10.8 -2.6,6.3 -8.6,10.8 -15.5,10.8 -7,0 -13,-4.4 -15.5,-10.8 -2.6,6.3 -8.6,10.8 -15.5,10.8 -7,0 -13,-4.4 -15.5,-10.8 -2.6,6.3 -8.6,10.8 -15.5,10.8 -7,0 -13,-4.4 -15.5,-10.8 -2.6,6.3 -8.6,10.8 -15.5,10.8 -7,0 -13,-4.4 -15.5,-10.8 -2.6,6.3 -8.6,10.8 -15.5,10.8 -7,0 -13,-4.4 -15.5,-10.8 -2.6,6.3 -8.6,10.8 -15.5,10.8 -7,0 -13,-4.4 -15.5,-10.8 -2.6,6.3 -8.6,10.8 -15.5,10.8 -7,0 -13,-4.4 -15.5,-10.8 -2.6,6.3 -8.6,10.8 -15.5,10.8 -0.3,0 -0.5,0 -0.8,0 v 39.1 h 313.9 z"
         clip-path="url(#SVGID_4_-0)"
         id="path201" />
    </g>
    <polygon
       points="437.7,173.4 422,157.5 406.2,173.4 390.5,157.5 374.7,173.4 358.9,157.5 343.2,173.4 327.4,157.5 311.6,173.4 295.8,157.5 280.1,173.4 264.3,157.5 263.5,158.3 263.5,206.8 578.1,206.8 578.1,159.1 563.9,173.4 548.1,157.5 532.3,173.4 516.6,157.5 500.8,173.4 485,157.5 469.2,173.4 453.5,157.5 "
       id="polygon205"
       transform="matrix(0.26458334,0,0,0.26458334,-449.28898,44.793963)" />
    <g
       id="g215"
       transform="matrix(0.26458334,0,0,0.26458334,-449.28898,44.793963)">
      <defs
         id="defs208-0">
        <rect
           id="rect598"
           x="263.5"
           y="80.900002"
           width="314.89999"
           height="433.5" />
      </defs>
      <clipPath
         id="clipPath533">
        <use
           xlink:href="#SVGID_5_-2"
           style="overflow:visible"
           id="use531"
           x="0"
           y="0"
           width="100%"
           height="100%" />
      </clipPath>
      <path
         class="st2"
         d="m 578.4,366 v -42.3 c -1.1,0.7 -2.4,1.2 -4,1.2 -7.8,0 -7.8,-10.3 -15.5,-10.3 -7.8,0 -7.8,10.3 -15.5,10.3 -7.8,0 -7.8,-10.3 -15.5,-10.3 -7.8,0 -7.8,10.3 -15.5,10.3 -7.8,0 -7.8,-10.3 -15.5,-10.3 -7.8,0 -7.8,10.3 -15.5,10.3 -7.8,0 -7.8,-10.3 -15.5,-10.3 -7.8,0 -7.8,10.3 -15.5,10.3 -7.8,0 -7.8,-10.3 -15.5,-10.3 -7.7,0 -7.8,10.3 -15.5,10.3 -7.8,0 -7.8,-10.3 -15.5,-10.3 -7.8,0 -7.8,10.3 -15.5,10.3 -7.8,0 -7.8,-10.3 -15.5,-10.3 -7.8,0 -7.8,10.3 -15.5,10.3 -7.8,0 -7.8,-10.3 -15.5,-10.3 -7.8,0 -7.8,10.3 -15.5,10.3 -7.8,0 -7.8,-10.3 -15.5,-10.3 -7.8,0 -7.8,10.3 -15.5,10.3 -7.8,0 -7.8,-10.3 -15.5,-10.3 -7.8,0 -7.8,10.3 -15.5,10.3 0,0 -0.1,0 -0.1,0 V 366 Z"
         clip-path="url(#SVGID_6_-93)"
         id="path213" />
    </g>
    <path
       class="st0"
       d="m 42.871066,338.12893 v 0 c 8.496242,-8.49624 13.658516,-3.33397 22.154766,-11.83021 8.49624,-8.49624 3.33396,-13.65851 11.72266,-22.04721 8.49624,-8.49624 13.65851,-3.33397 22.04721,-11.72266 8.496238,-8.49625 3.333968,-13.65852 11.722658,-22.04721 8.49625,-8.49625 13.65852,-3.33397 22.04721,-11.72267 8.49625,-8.49624 3.33397,-13.65851 11.72266,-22.04721 8.49624,-8.49624 13.65851,-3.33397 22.04721,-11.72266 8.38869,-8.3887 3.33397,-13.65852 11.72266,-22.04721 8.49624,-8.49624 13.65852,-3.33397 22.04721,-11.72267 8.49624,-8.49624 3.33397,-13.65851 11.72267,-22.04721 8.49624,-8.49624 13.65851,-3.33396 22.04721,-11.72266 8.38869,-8.38869 3.33396,-13.65852 11.72266,-22.04721 8.49624,-8.49624 13.65852,-3.33397 22.04721,-11.72266 8.49624,-8.49625 3.33397,-13.65852 11.72266,-22.04721 8.49625,-8.496244 13.65852,-3.333969 22.04721,-11.722665 8.49625,-8.496242 3.33397,-13.658516 11.72267,-22.04721 8.49624,-8.496242 13.65851,-3.333968 22.04721,-11.722663 8.49624,-8.496242 3.33397,-13.658516 11.72266,-22.047211 8.49624,-8.496242 13.65852,-3.333969 22.04721,-11.722663 8.3887,-8.388695 3.33397,-13.6585173 11.72267,-22.04721226 L 380.99999,3.7407408e-6 H -42.333381 V 338.66667 h 84.66671 z"
       clip-path="none"
       id="path187-5"
       sodipodi:nodetypes="csssssssssssssssssssssccccc"
       style="fill:#ffffff;stroke-width:1.52095" />
    <rect
       style="fill:#ffffff;stroke-width:0.264583"
       id="rect651"
       width="169.33334"
       height="169.33334"
       x="-127.00001"
       y="254" />
  </g>
</svg>
